<?xml version="1.0" encoding="UTF-8" standalone="no" ?>
<!DOCTYPE svg PUBLIC "-//W3C//DTD SVG 1.1//EN" "http://www.w3.org/Graphics/SVG/1.1/DTD/svg11.dtd">
<svg xmlns="http://www.w3.org/2000/svg" xmlns:xlink="http://www.w3.org/1999/xlink" version="1.1" width="500" height="500" viewBox="0 0 500 500" xml:space="preserve">
<desc>Created with Fabric.js 4.6.0</desc>
<defs>
</defs>
<g transform="matrix(1 0 0 1 265.21 522.88)" id="BEvmSWGsamfqbvOEUHbTQ"  >
<g style="" vector-effect="non-scaling-stroke"   >
		<g transform="matrix(1 0 0 1 -18.77 -6.76)" id="czPOj16eSNjfliE4Y5LpG"  >
<path style="stroke: none; stroke-width: 0; stroke-dasharray: none; stroke-linecap: butt; stroke-dashoffset: 0; stroke-linejoin: miter; stroke-miterlimit: 10; fill: rgb(250,217,140); fill-rule: nonzero; opacity: 1;" vector-effect="non-scaling-stroke"  transform=" translate(-221.98, -378.27)" d="M -82.38422 598.31771 L -132.9553 285.90893000000005 C -132.9553 285.90893000000005 -5.286779999999993 302.23125000000005 110.34838000000002 273.91197000000005 C 210.74342000000001 249.32502000000005 210.86143000000004 224.53686000000005 291.58132 193.02575000000007 C 449.49613 131.37959000000006 512.83467 170.39103000000006 512.83467 170.39103000000006 L 576.91926 443.76077000000004 z" stroke-linecap="round" />
</g>
		<g transform="matrix(1 0 0 1 18.77 6.76)" id="JBhhmbLG3sZ20jMcL-7Cl"  >
<path style="stroke: none; stroke-width: 0; stroke-dasharray: none; stroke-linecap: butt; stroke-dashoffset: 0; stroke-linejoin: miter; stroke-miterlimit: 10; fill: rgb(251,205,98); fill-rule: nonzero; opacity: 1;" vector-effect="non-scaling-stroke"  transform=" translate(-259.52, -391.78)" d="M -44.84668 611.83122 L -95.41776 299.42244000000005 C -95.41776 299.42244000000005 32.25075 315.74476000000004 147.88591000000002 287.42548000000005 C 248.28096000000002 262.83853000000005 248.39896000000005 238.05037000000004 329.11885000000007 206.53925000000004 C 487.03366000000005 144.89309000000003 550.3722 183.90453000000002 550.3722 183.90453000000002 L 614.4567900000001 457.27427 z" stroke-linecap="round" />
</g>
</g>
</g>
</svg>